<?xml version="1.0" standalone="no"?>
<!DOCTYPE svg PUBLIC "-//W3C//DTD SVG 20010904//EN"
 "http://www.w3.org/TR/2001/REC-SVG-20010904/DTD/svg10.dtd">
<svg version="1.0" xmlns="http://www.w3.org/2000/svg"
 width="980.000000pt" height="800.000000pt" viewBox="0 0 980.000000 800.000000"
 preserveAspectRatio="xMidYMid meet">

<g transform="translate(0.000000,800.000000) scale(0.100000,-0.100000)"
fill="#000000" stroke="none">
<path d="M3597 7986 c-62 -17 -102 -50 -213 -177 -125 -144 -139 -152 -239
-146 -82 4 -110 13 -468 141 -178 64 -263 85 -410 102 -71 8 -142 21 -159 30
-41 21 -68 12 -119 -40 -102 -103 -206 -324 -327 -691 -186 -569 -375 -1025
-855 -2055 -264 -567 -421 -924 -567 -1290 -102 -255 -144 -377 -185 -535
-104 -404 -60 -655 153 -877 151 -156 327 -255 629 -352 499 -160 720 -235
923 -312 296 -111 693 -244 1015 -339 543 -159 688 -213 1175 -438 329 -151
534 -238 885 -372 173 -67 354 -156 651 -323 389 -217 575 -279 917 -301 158
-10 222 -4 259 25 14 10 61 46 104 78 105 79 235 212 483 496 112 129 320 350
461 490 312 310 347 355 585 745 367 603 535 784 990 1070 113 71 299 169 415
218 36 15 74 34 84 42 18 14 18 16 -9 57 -15 24 -52 73 -81 109 -30 36 -54 69
-54 72 0 3 22 21 49 41 101 74 109 171 22 285 l-25 33 24 42 c91 158 98 194
52 267 -32 49 -114 114 -273 214 -116 73 -307 173 -384 200 -27 10 -54 21 -58
25 -4 4 32 22 80 40 131 49 208 85 232 109 26 26 27 66 1 130 -11 28 -16 52
-11 55 4 3 36 10 71 15 69 11 187 48 195 60 2 5 -23 35 -58 67 -34 32 -117
111 -184 175 l-122 118 30 66 c17 37 29 78 27 92 -4 33 -68 70 -214 123 -112
41 -134 57 -134 98 0 41 -29 87 -73 115 -55 36 -173 73 -437 137 -763 184
-1548 415 -2220 652 -461 162 -524 193 -710 349 -148 123 -377 267 -740 464
-208 112 -368 205 -510 294 -334 209 -405 251 -473 279 -90 37 -139 44 -200
28z m126 -111 c42 -17 168 -93 312 -187 129 -85 404 -244 674 -392 273 -150
489 -277 569 -333 106 -75 108 -76 -253 64 -657 255 -1170 432 -1537 528
l-158 41 103 118 c148 170 200 199 290 161z m-1340 -45 c56 -16 183 -58 282
-93 217 -78 286 -99 710 -221 608 -173 1206 -384 2037 -716 741 -297 1663
-594 2543 -821 474 -122 726 -194 784 -224 73 -36 93 -66 85 -129 -15 -126
-56 -213 -316 -667 -212 -368 -274 -483 -505 -934 -202 -393 -324 -609 -488
-865 -273 -427 -310 -511 -380 -863 -53 -273 -77 -368 -119 -477 -18 -47 -39
-103 -46 -125 -19 -62 -244 -518 -263 -534 -9 -7 -17 -20 -17 -29 0 -20 -86
-213 -165 -372 -91 -182 -171 -367 -189 -437 -9 -34 -16 -100 -16 -148 l0 -88
-103 6 c-130 8 -262 42 -414 107 -120 52 -185 86 -468 251 -209 121 -288 157
-664 306 -396 156 -589 236 -905 375 -422 185 -657 271 -1116 408 -285 85
-430 133 -850 282 -201 72 -455 159 -565 195 -345 111 -547 180 -638 219 -230
96 -390 253 -461 454 -29 79 -31 95 -31 220 0 114 5 152 28 244 54 214 178
557 360 991 130 311 303 694 667 1480 270 581 390 875 580 1420 67 193 142
400 167 460 64 159 173 337 217 356 33 14 148 0 259 -31z m6705 -2363 c30 -12
60 -30 66 -40 23 -36 -62 -161 -318 -467 -242 -289 -534 -615 -543 -606 -6 6
69 153 198 388 223 405 348 614 432 722 28 36 33 38 70 32 22 -4 65 -17 95
-29z m275 -367 c113 -111 117 -125 46 -152 -70 -25 -463 -108 -472 -99 -13 13
136 213 241 323 56 58 52 59 185 -72z m-154 -301 c41 -14 58 -52 37 -83 -18
-29 -97 -70 -276 -146 -296 -125 -417 -208 -692 -479 -104 -101 -188 -181
-188 -176 0 32 511 592 645 707 157 133 370 213 474 177z m-99 -370 c166 -63
407 -193 484 -261 112 -98 102 -169 -50 -358 -109 -135 -204 -262 -334 -445
-264 -372 -350 -477 -676 -825 -422 -452 -467 -510 -734 -955 -258 -428 -409
-637 -706 -975 -273 -311 -393 -418 -527 -471 -93 -37 -115 -37 -128 -1 -23
59 28 215 158 485 84 172 73 163 168 148 66 -11 75 -6 75 40 0 35 -4 40 -40
59 -23 12 -43 27 -46 35 -6 15 54 155 66 155 5 0 56 -22 114 -50 147 -68 245
-102 274 -95 l25 6 -22 23 c-12 13 -68 47 -124 76 -148 77 -217 120 -217 135
0 24 91 192 124 231 41 47 46 46 210 -52 70 -42 130 -74 133 -70 8 7 -23 53
-56 83 -14 13 -60 47 -101 75 -84 57 -130 96 -130 112 0 6 45 104 101 218
l102 206 137 -68 c263 -132 320 -146 320 -79 0 21 -60 64 -165 116 -163 81
-235 125 -234 143 0 8 23 61 52 117 l52 102 125 -69 c69 -39 157 -83 197 -100
74 -31 146 -39 159 -18 25 41 -322 228 -423 228 -53 0 -54 -5 13 118 25 46 53
86 61 89 17 7 182 -74 313 -153 86 -52 161 -81 180 -69 21 13 8 36 -32 62 -67
42 -275 148 -360 184 -44 18 -78 38 -78 46 0 22 66 146 88 167 19 16 26 17 74
6 109 -25 249 -92 397 -188 78 -51 91 -52 91 -10 0 69 -180 197 -377 268 -66
24 -103 51 -103 76 0 22 57 102 82 115 47 25 199 -23 458 -146 101 -48 202
-93 224 -101 l41 -14 -30 25 c-41 34 -406 214 -538 265 -59 23 -109 46 -112
50 -4 7 70 119 123 185 l22 28 48 -18 c26 -10 119 -51 207 -90 88 -40 193 -84
233 -99 81 -29 152 -35 152 -12 0 17 -61 48 -250 127 -153 64 -263 123 -294
158 -18 20 -18 21 2 55 12 20 44 64 72 100 l52 64 131 -60 c288 -130 454 -186
588 -195 79 -5 88 -4 108 16 27 27 27 75 1 118 -27 45 -113 106 -255 182 -312
167 -330 178 -327 197 8 48 162 263 298 419 62 70 93 97 143 123 75 38 115 40
191 11z m-691 -376 c-144 -190 -531 -674 -559 -698 l-23 -20 13 25 c44 85 324
462 457 617 95 110 205 224 211 218 3 -3 -42 -67 -99 -142z m232 -347 c243
-127 329 -180 329 -199 0 -23 -45 -57 -82 -63 -67 -11 -303 64 -483 153 -115
57 -122 64 -106 100 23 50 95 132 111 127 8 -3 112 -56 231 -118z m1029 -12
c6 -14 10 -32 10 -40 0 -41 -245 -243 -267 -220 -15 15 206 286 233 286 8 0
19 -12 24 -26z m-52 -454 c-41 -19 -139 -66 -218 -105 -80 -38 -149 -72 -155
-74 -5 -2 64 71 154 162 l164 165 64 -56 63 -57 -72 -35z m-2174 -362 c-20
-59 -87 -175 -91 -161 -6 17 88 203 103 203 2 0 -4 -19 -12 -42z m-165 -540
c-17 -32 -24 -38 -27 -25 -4 19 14 72 32 96 22 29 18 -26 -5 -71z m948 -360
c-92 -168 -341 -547 -360 -548 -20 0 173 329 301 515 103 149 131 164 59 33z"/>
<path d="M3586 6955 c-65 -110 -279 -559 -313 -656 l-18 -51 24 -19 c27 -22
64 -25 80 -5 7 8 75 141 152 296 78 157 144 278 149 275 30 -19 180 -480 180
-554 0 -34 23 -72 52 -87 24 -12 33 -13 55 -2 54 26 222 262 296 415 33 70 42
99 42 142 0 49 -3 56 -27 70 -40 23 -52 11 -103 -104 -51 -113 -120 -231 -169
-290 -29 -34 -36 -38 -50 -26 -9 7 -28 51 -42 98 -14 46 -52 151 -84 232 -123
313 -167 364 -224 266z"/>
<path d="M4512 6599 c-96 -48 -171 -166 -241 -384 -51 -156 -69 -241 -55 -263
18 -29 203 -119 332 -162 132 -44 200 -52 127 -14 -22 12 -96 40 -165 64 -148
52 -186 81 -175 133 19 89 93 287 108 287 7 0 83 -28 170 -61 86 -34 160 -59
163 -56 4 3 4 17 0 30 -6 26 -57 57 -178 107 -43 17 -89 41 -103 51 -24 20
-24 21 -9 57 29 70 126 152 179 152 35 0 125 -50 196 -110 26 -22 63 -49 83
-61 30 -18 36 -18 36 -5 0 29 -205 186 -301 231 -66 30 -111 32 -167 4z"/>
<path d="M5186 6455 c-34 -34 -32 -206 5 -470 31 -221 77 -361 125 -379 35
-14 127 84 269 287 74 106 97 129 115 111 21 -21 33 -188 26 -387 l-6 -197 24
-11 c38 -18 96 22 229 158 284 288 416 515 328 562 -28 15 -56 -10 -125 -118
-74 -113 -156 -217 -254 -321 l-71 -75 -1 95 c-1 176 -48 386 -109 482 -25 39
-56 68 -74 68 -3 0 -24 -33 -48 -72 -23 -40 -82 -132 -131 -204 -92 -138 -145
-196 -159 -172 -9 17 -27 172 -34 308 -18 296 -49 394 -109 335z"/>
<path d="M1686 6444 c-4 -9 -1 -23 5 -31 37 -43 305 -171 629 -298 413 -163
714 -249 1655 -475 542 -130 831 -217 1355 -407 330 -120 666 -233 1440 -487
402 -132 493 -167 777 -295 201 -90 258 -106 270 -76 7 20 -9 33 -114 91 -196
108 -514 232 -1049 407 -192 63 -520 171 -729 240 -209 68 -519 176 -690 240
-494 183 -724 252 -1275 382 -1055 249 -1454 373 -1960 610 -258 121 -301 134
-314 99z"/>
<path d="M1568 6115 c-20 -11 -46 -54 -101 -168 -41 -84 -127 -249 -191 -367
-240 -436 -303 -572 -512 -1107 -137 -352 -283 -709 -402 -984 -100 -229 -101
-267 -10 -293 29 -8 111 -22 183 -31 371 -46 576 -109 965 -295 370 -178 538
-237 695 -247 101 -6 196 12 246 48 59 42 94 144 124 353 22 158 42 216 130
381 190 356 233 450 360 780 59 153 167 361 335 645 155 262 273 477 297 538
15 41 15 44 -4 70 -29 39 -222 167 -370 244 -365 190 -805 324 -1375 418 -199
33 -327 38 -370 15z m211 -31 c17 -4 31 -10 31 -15 0 -7 -166 -114 -196 -126
-11 -4 -10 7 6 48 12 30 28 62 37 71 22 24 68 32 122 22z m419 -79 c447 -91
871 -241 1154 -408 166 -98 215 -154 197 -221 -18 -65 -155 -324 -295 -556
l-135 -225 -312 -149 c-425 -204 -1043 -491 -1382 -643 -404 -181 -503 -233
-525 -273 -9 -17 -7 -22 17 -31 22 -9 42 -7 98 9 155 45 639 259 1320 582 279
133 614 288 635 295 21 7 22 5 16 -21 -12 -49 -105 -292 -168 -439 -74 -174
-211 -443 -248 -486 l-27 -33 -52 12 c-46 10 -59 9 -114 -9 -99 -32 -712 -357
-783 -414 -36 -29 -25 -45 40 -52 58 -7 88 5 278 113 300 170 588 311 609 298
5 -2 -6 -36 -22 -75 -17 -39 -39 -109 -49 -155 -23 -105 -29 -114 -80 -107
-53 7 -153 -12 -295 -59 -145 -47 -220 -85 -220 -112 0 -26 40 -36 98 -25 25
4 103 30 174 57 110 43 279 89 289 79 2 -2 -5 -45 -16 -96 -33 -162 -89 -204
-239 -180 -119 19 -261 74 -601 234 -345 162 -460 201 -745 250 -198 34 -366
65 -387 71 -10 3 -18 12 -18 20 0 17 77 210 267 669 83 198 165 399 183 447
18 50 47 105 67 128 67 78 350 249 933 565 439 238 659 384 803 533 72 76 83
105 43 123 -44 20 -71 6 -211 -112 -84 -71 -231 -169 -435 -291 -167 -100
-243 -143 -705 -393 -110 -60 -235 -130 -278 -157 -44 -27 -81 -47 -83 -45 -8
8 52 150 135 320 56 117 89 172 117 199 21 20 138 96 259 168 207 125 622 395
674 440 29 25 22 65 -13 82 -34 15 -96 -16 -317 -158 -387 -248 -479 -301
-479 -279 0 3 12 29 26 58 42 83 109 179 164 236 88 88 309 227 417 261 0 0
100 -20 221 -45z"/>
<path d="M2995 5492 c-78 -43 -233 -150 -601 -412 -635 -454 -1054 -722 -1386
-887 -180 -90 -213 -114 -173 -129 46 -18 361 129 655 305 241 145 764 503
1284 878 271 196 335 246 336 261 0 21 -63 13 -115 -16z"/>
<path d="M3195 5056 c-108 -40 -657 -275 -880 -377 -433 -197 -916 -464 -1265
-699 -97 -65 -118 -86 -103 -101 22 -22 129 32 413 208 425 264 1063 581 1695
842 183 76 270 121 270 141 0 25 -35 21 -130 -14z"/>
<path d="M2305 3671 c-536 -184 -801 -302 -793 -355 7 -50 73 -33 461 115 144
56 325 122 402 149 201 69 226 80 223 98 -3 17 -63 62 -82 62 -7 0 -102 -31
-211 -69z"/>
<path d="M6543 5913 c-38 -21 -78 -72 -94 -121 -23 -71 6 -154 114 -326 103
-165 117 -219 68 -265 -53 -50 -145 -64 -237 -36 -57 17 -96 50 -124 105 -32
63 -76 85 -115 57 -45 -34 27 -127 142 -184 65 -32 86 -37 163 -41 103 -5 194
17 272 67 84 54 73 115 -59 324 -106 169 -127 260 -78 343 51 88 90 86 184 -6
79 -77 120 -103 158 -98 43 5 38 24 -22 88 -83 87 -136 110 -250 110 -67 0
-99 -4 -122 -17z"/>
<path d="M3955 5300 c-26 -29 -16 -110 21 -162 62 -88 254 -158 800 -293 192
-48 509 -129 704 -182 506 -135 875 -225 1185 -289 465 -95 561 -125 712 -221
210 -135 294 -181 355 -197 199 -54 129 110 -93 217 -198 97 -585 210 -1541
452 -1077 273 -1261 332 -1750 559 -298 138 -357 155 -393 116z m280 -150
c103 -47 292 -122 533 -211 317 -117 319 -122 21 -49 -305 76 -518 138 -571
167 -63 34 -148 116 -148 142 0 21 0 21 48 2 26 -11 79 -33 117 -51z m1835
-565 c232 -57 517 -138 503 -142 -23 -8 -673 154 -712 177 -33 19 25 9 209
-35z m660 -165 c0 -5 -11 -10 -25 -10 -14 0 -25 5 -25 10 0 6 11 10 25 10 14
0 25 -4 25 -10z"/>
<path d="M3820 4852 c0 -16 36 -37 100 -57 30 -10 282 -105 560 -212 776 -300
929 -354 1003 -352 l42 0 -65 31 c-162 74 -1261 502 -1435 558 -110 35 -205
50 -205 32z"/>
<path d="M3686 4591 c-30 -47 334 -200 1129 -476 132 -46 301 -106 377 -134
75 -28 143 -51 152 -51 44 0 12 42 -59 78 -53 26 -295 118 -465 177 -435 150
-689 246 -955 359 -126 54 -168 65 -179 47z"/>
<path d="M5694 4242 c10 -17 474 -202 1191 -474 342 -130 465 -167 465 -141 0
21 -133 79 -611 264 -272 105 -516 199 -544 209 -209 76 -337 119 -380 128
-89 19 -127 24 -121 14z"/>
<path d="M3577 4213 c-32 -31 37 -65 448 -222 1086 -414 1057 -403 1120 -405
47 -1 60 2 63 15 5 26 -97 71 -668 291 -802 308 -933 352 -963 321z"/>
<path d="M5550 3980 c0 -15 80 -64 185 -115 199 -95 1413 -535 1478 -535 56 0
-33 57 -190 121 -54 22 -260 98 -458 169 -396 141 -660 240 -775 289 -173 75
-240 94 -240 71z"/>
<path d="M3477 3903 c-18 -17 -3 -31 41 -38 123 -18 668 -217 1102 -403 238
-101 370 -152 397 -152 7 0 13 7 13 15 0 27 -299 164 -756 345 -396 157 -765
265 -797 233z"/>
<path d="M3444 3715 c-20 -31 -18 -34 61 -64 28 -11 133 -52 235 -91 349 -135
835 -318 960 -360 145 -48 215 -59 245 -37 20 15 20 16 -5 25 -498 194 -1406
536 -1452 547 -21 6 -30 2 -44 -20z"/>
<path d="M5438 3609 c-10 -5 -18 -14 -18 -19 0 -15 79 -52 265 -124 1157 -448
1285 -496 1327 -496 39 0 58 10 58 30 0 28 -28 40 -900 375 -661 255 -685 262
-732 234z"/>
<path d="M3200 3520 c0 -15 73 -53 265 -138 99 -44 284 -128 410 -187 385
-180 835 -369 972 -408 53 -16 63 -12 63 23 0 18 -87 60 -239 115 -195 72
-366 146 -761 327 -359 165 -486 221 -584 254 -72 25 -126 31 -126 14z"/>
<path d="M5332 3301 c-20 -12 17 -38 68 -46 110 -17 472 -148 1040 -377 264
-107 391 -151 417 -146 38 8 -210 127 -579 279 -300 124 -525 203 -723 254
-151 39 -205 47 -223 36z"/>
<path d="M3073 3204 c-3 -9 -2 -27 3 -41 8 -21 50 -43 259 -133 138 -59 401
-174 585 -255 400 -176 619 -268 717 -301 80 -27 143 -32 143 -11 0 17 -36 50
-76 70 -70 36 -1406 626 -1481 655 -92 36 -140 41 -150 16z"/>
<path d="M5303 3123 c-79 -14 8 -54 657 -304 603 -231 774 -288 814 -273 27
10 18 30 -21 46 -612 251 -1314 517 -1398 530 -16 2 -40 3 -52 1z"/>
<path d="M5060 2922 c0 -21 56 -56 161 -101 63 -27 274 -122 469 -211 582
-265 929 -406 1048 -425 38 -6 42 -5 42 14 0 29 -47 56 -150 87 -178 53 -406
148 -829 346 -508 237 -741 328 -741 290z"/>
<path d="M2879 2849 c-14 -27 0 -41 61 -58 75 -21 278 -97 590 -218 661 -259
971 -350 1060 -313 17 7 29 18 27 24 -4 11 -86 36 -257 76 -179 43 -379 114
-816 288 -343 137 -582 222 -624 222 -20 0 -33 -7 -41 -21z"/>
<path d="M474 2747 l-29 -26 35 -14 c19 -8 185 -44 367 -81 831 -164 1443
-342 3013 -875 489 -165 673 -221 940 -282 603 -139 878 -231 1086 -364 118
-76 194 -101 222 -73 39 39 -13 84 -213 183 -249 123 -421 180 -882 290 -506
122 -582 145 -1673 516 -952 323 -1737 540 -2515 693 -327 64 -316 63 -351 33z"/>
<path d="M2695 2660 c-16 -27 83 -94 318 -215 321 -166 580 -265 981 -375 229
-63 373 -93 405 -85 24 6 24 7 5 24 -31 29 -112 58 -311 111 -459 123 -981
329 -1223 484 -101 65 -158 83 -175 56z"/>
<path d="M4943 2604 c-3 -9 -2 -24 4 -33 23 -36 222 -131 903 -432 598 -263
680 -295 745 -287 64 7 34 29 -177 132 -477 232 -1397 636 -1451 636 -10 0
-20 -7 -24 -16z"/>
<path d="M4735 2250 c-13 -20 26 -47 110 -75 44 -15 251 -94 460 -175 406
-158 609 -232 745 -273 209 -63 351 -88 399 -69 l25 9 -25 16 c-13 9 -67 28
-119 42 -295 82 -493 151 -966 333 -467 181 -609 224 -629 192z"/>
<path d="M4564 2059 c-18 -29 145 -139 372 -252 321 -160 632 -271 1092 -388
199 -51 236 -56 247 -38 17 26 -101 73 -376 149 -452 126 -792 260 -1131 446
-144 79 -194 99 -204 83z"/>
<path d="M7228 1782 c-16 -10 -28 -20 -28 -25 0 -20 240 -157 277 -157 29 0
83 26 83 40 0 12 -107 82 -194 129 -65 34 -97 37 -138 13z"/>
</g>
</svg>
